<mxfile host="app.diagrams.net" modified="2023-08-07T12:32:19.427Z" agent="Mozilla/5.0 (Windows NT 10.0; Win64; x64) AppleWebKit/537.36 (KHTML, like Gecko) Chrome/115.0.0.0 Safari/537.36" version="21.6.6" etag="SnZlSdEzEY9H7mm26Yrn" type="github">
  <diagram name="Page-1" id="3_3NdLHMnDyn02qg1m2_">
    <mxGraphModel>
      <root>
        <mxCell id="0" />
        <mxCell id="1" parent="0" />
      </root>
    </mxGraphModel>
  </diagram>
</mxfile>
